<?xml version="1.0" encoding="UTF-8"?>
<svg id="_mosir-layer_2" data-name="mosir layer 2" xmlns="http://www.w3.org/2000/svg" viewBox="0 0 83.87 82.27">
  <g id="_mosir-layer_1-2" data-name="mosir layer 1">
    <g>
      <path d="M0,81.75c.13-1.03.18-1.97.18-3.39v-6.91c0-1.7-.04-2.51-.18-3.39h4.44v.94q0,.09-.02.31v.22c1.14-1.26,2.51-1.84,4.28-1.84,1.17,0,2.13.27,2.87.81.4.29.63.56.92,1.12,1.39-1.37,2.76-1.95,4.71-1.95,3.21,0,4.84,1.75,4.84,5.13v5.56c0,1.39.04,2.31.18,3.36h-4.66c.13-1.05.18-1.86.18-3.39v-4.62c0-1.68-.49-2.33-1.77-2.33-1.14,0-2.18.9-2.74,2.4v4.57c0,1.35.04,2.29.18,3.36h-4.66c.13-1.01.18-1.95.18-3.39v-4.62c0-.94-.09-1.37-.38-1.75-.25-.36-.69-.56-1.23-.56-1.21,0-2.24.87-2.87,2.4v4.53c0,1.41.04,2.29.18,3.39H0Z"/>
      <path d="M25.1,74.89c0-4.48,3.17-7.33,8.18-7.33s8.18,2.85,8.18,7.29-3.27,7.42-8.21,7.42-8.16-2.87-8.16-7.38ZM29.83,74.87c0,2.49,1.29,3.99,3.45,3.99s3.4-1.46,3.4-3.95-1.26-3.99-3.37-3.99-3.47,1.48-3.47,3.95Z"/>
      <path d="M48.89,77.18c.22,1.17.99,1.68,2.49,1.68,1.35,0,2.11-.38,2.11-1.08,0-.34-.18-.63-.49-.81-.31-.18-.61-.27-1.84-.52-1.7-.34-2.58-.56-3.32-.81-1.08-.4-1.82-.92-2.24-1.59-.36-.61-.56-1.37-.56-2.13,0-2.69,2.27-4.33,6.01-4.33,2.13,0,3.72.47,4.78,1.44.74.65,1.1,1.3,1.46,2.56l-4.33.47c-.11-.92-.67-1.32-1.88-1.32s-1.88.38-1.88.96.47.83,2.69,1.32c2.2.47,2.89.67,3.68,1.08,1.46.72,2.15,1.82,2.15,3.43,0,1.19-.4,2.26-1.14,2.98-1.08,1.08-2.92,1.64-5.31,1.64-2.83,0-4.82-.76-5.9-2.24-.45-.63-.67-1.17-.9-2.24l4.44-.49Z"/>
      <path d="M66.78,68.08c-.13.92-.18,1.82-.18,3.39v6.91c0,1.21.07,2.42.18,3.39h-4.69c.13-1.1.18-1.95.18-3.39v-6.91c0-1.46-.04-2.38-.18-3.39h4.69ZM66.72,63.1v3.36h-4.55v-3.36h4.55Z"/>
      <path d="M82.8,72.11c-1.03-.31-2.67-.43-3.36-.43-1.14,0-2.02.4-2.67,1.21-.43.54-.58,1.01-.67,2v3.5c0,1.44.04,2.29.18,3.36h-4.64c.13-1.12.18-1.93.18-3.39v-6.91c0-1.64-.04-2.42-.18-3.39h4.46v2.43c1.1-1.44,2.44-2.69,4.48-2.69.72,0,2.24.04,3.3.27l-1.08,4.04Z"/>
    </g>
    <g>
      <path d="M66.89,48.32c5.95,0,8.72-.37,11.33-1.19-3.48-1.05-7.98-5.62-12.47-11.29-2.27,3-5.87,4.95-9.92,4.95-6.88,0-12.46-5.58-12.46-12.46,0-5.69,3.82-10.48,9.03-11.97-3.11-5.05-5.14-8.67-5.14-8.67l-5.22,6.23L32.42,0S14.33,36.42,3.11,47.79c0,0,11.06-7.35,20.67-7.53,20-.38,24.28,8.05,43.1,8.05Z"/>
      <path d="M58.41,50.09c-12.23-1.53-18.61-5.95-30.71-5.97-13.54-.02-24.59,8.12-24.59,8.12,0,0,7.46-2.73,17.25-2.73,13.1,0,18.82,6.48,38.56,6.48,16.94,0,21.85-7.69,21.85-7.69-6.3,3.47-15.34,2.65-22.35,1.78Z"/>
      <path d="M68.27,28.33c0-6.88-5.58-12.46-12.46-12.46-1.19,0-2.34.18-3.42.49,3.52,5.72,8.43,13.26,13.35,19.48,1.58-2.09,2.53-4.68,2.53-7.51Z"/>
    </g>
  </g>
</svg>