<?xml version="1.0" encoding="UTF-8"?>
<svg id="_mosir-layer_2" data-name="mosir layer 2" xmlns="http://www.w3.org/2000/svg" viewBox="0 0 240.2 56">
  <g id="_mosir-layer_1-2" data-name="mosir layer 1">
    <g>
      <path d="M63.78,48.32c5.95,0,8.72-.37,11.33-1.19-3.48-1.05-7.98-5.62-12.47-11.29-2.27,3-5.87,4.95-9.92,4.95-6.88,0-12.46-5.58-12.46-12.46,0-5.69,3.82-10.48,9.03-11.97-3.11-5.05-5.14-8.67-5.14-8.67l-5.22,6.23L29.31,0S11.22,36.42,0,47.79c0,0,11.06-7.35,20.67-7.53,20-.38,24.28,8.05,43.1,8.05Z"/>
      <path d="M55.3,50.09c-12.23-1.53-18.61-5.95-30.71-5.97-13.54-.02-24.59,8.12-24.59,8.12,0,0,7.46-2.73,17.25-2.73,13.1,0,18.82,6.48,38.56,6.48,16.94,0,21.85-7.69,21.85-7.69-6.3,3.47-15.34,2.65-22.35,1.78Z"/>
      <path d="M65.16,28.33c0-6.88-5.58-12.46-12.46-12.46-1.19,0-2.34.18-3.42.49,3.52,5.72,8.43,13.26,13.35,19.48,1.58-2.09,2.53-4.68,2.53-7.51Z"/>
    </g>
    <g>
      <path d="M90.6,44.77c.24-1.84.32-3.52.32-6.04v-12.32c0-3.04-.08-4.48-.32-6.04h7.92v1.68q0,.16-.04.56v.4c2.04-2.24,4.48-3.28,7.64-3.28,2.08,0,3.8.48,5.12,1.44.72.52,1.12,1,1.64,2,2.48-2.44,4.92-3.48,8.4-3.48,5.72,0,8.64,3.12,8.64,9.16v9.92c0,2.48.08,4.12.32,6h-8.32c.24-1.88.32-3.32.32-6.04v-8.24c0-3-.88-4.16-3.16-4.16-2.04,0-3.88,1.6-4.88,4.28v8.16c0,2.4.08,4.08.32,6h-8.32c.24-1.8.32-3.48.32-6.04v-8.24c0-1.68-.16-2.44-.68-3.12-.44-.64-1.24-1-2.2-1-2.16,0-4,1.56-5.12,4.28v8.08c0,2.52.08,4.08.32,6.04h-8.24Z"/>
      <path d="M135.37,32.54c0-8,5.66-13.08,14.59-13.08s14.59,5.08,14.59,13-5.84,13.24-14.64,13.24-14.55-5.12-14.55-13.16ZM143.81,32.5c0,4.44,2.3,7.12,6.15,7.12s6.06-2.6,6.06-7.04-2.26-7.12-6.01-7.12-6.19,2.64-6.19,7.04Z"/>
      <path d="M177.8,36.61c.4,2.08,1.76,3,4.44,3,2.4,0,3.76-.68,3.76-1.92,0-.6-.32-1.12-.88-1.44-.56-.32-1.08-.48-3.28-.92-3.04-.6-4.6-1-5.92-1.44-1.92-.72-3.24-1.64-4-2.84-.64-1.08-1-2.44-1-3.8,0-4.8,4.04-7.72,10.72-7.72,3.8,0,6.64.84,8.52,2.56,1.32,1.16,1.96,2.32,2.6,4.56l-7.72.84c-.2-1.64-1.2-2.36-3.36-2.36s-3.36.68-3.36,1.72.84,1.48,4.8,2.36c3.92.84,5.16,1.2,6.56,1.92,2.6,1.28,3.84,3.24,3.84,6.12,0,2.12-.72,4.04-2.04,5.32-1.92,1.92-5.2,2.92-9.48,2.92-5.04,0-8.6-1.36-10.52-4-.8-1.12-1.2-2.08-1.6-4l7.92-.88Z"/>
      <path d="M209.72,20.38c-.24,1.64-.32,3.24-.32,6.04v12.32c0,2.16.12,4.32.32,6.04h-8.36c.24-1.96.32-3.48.32-6.04v-12.32c0-2.6-.08-4.24-.32-6.04h8.36ZM209.6,11.5v6h-8.12v-6h8.12Z"/>
      <path d="M238.28,27.58c-1.84-.56-4.76-.76-6-.76-2.04,0-3.6.72-4.76,2.16-.76.96-1.04,1.8-1.2,3.56v6.24c0,2.56.08,4.08.32,6h-8.28c.24-2,.32-3.44.32-6.04v-12.32c0-2.92-.08-4.32-.32-6.04h7.96v4.33c1.96-2.56,4.36-4.81,8-4.81,1.28,0,4,.08,5.88.48l-1.92,7.2Z"/>
    </g>
  </g>
</svg>